<svg xmlns="http://www.w3.org/2000/svg" width="21" height="26.25" viewBox="0 0 21 26.25">
  <path id="icon-cart" d="M11.25,21.375h10.5a1.313,1.313,0,0,1,0,2.625H9.938a1.313,1.313,0,0,1-1.312-1.312V5.625H7.313A1.313,1.313,0,0,1,7.313,3H9.938A1.313,1.313,0,0,1,11.25,4.313V6.939l.1,0H24.28A2.673,2.673,0,0,1,27,9.563a2.557,2.557,0,0,1-.066.57l-1.511,6.563a2.7,2.7,0,0,1-2.656,2.055H11.346l-.1,0Zm-.656,7.875a1.969,1.969,0,1,1,1.969-1.969A1.969,1.969,0,0,1,10.594,29.25Zm11.813,0a1.969,1.969,0,1,1,1.969-1.969A1.969,1.969,0,0,1,22.406,29.25ZM11.25,9.563v6.563H22.84l1.535-6.562Z" transform="translate(-6 -3)" fill="#144092" fill-rule="evenodd"/>
</svg>
