<svg id="plus-circle" xmlns="http://www.w3.org/2000/svg" width="21.484" height="21.484" viewBox="0 0 21.484 21.484">
  <path id="Caminho_25301" data-name="Caminho 25301" d="M13.917,7.875a.671.671,0,0,1,.671.671v5.371a.671.671,0,0,1-.671.671H8.546a.671.671,0,1,1,0-1.343h4.7v-4.7A.671.671,0,0,1,13.917,7.875Z" transform="translate(-3.175 -3.175)" fill="#11357a" fill-rule="evenodd"/>
  <path id="Caminho_25302" data-name="Caminho 25302" d="M16.875,17.546a.671.671,0,0,1,.671-.671h5.371a.671.671,0,0,1,0,1.343h-4.7v4.7a.671.671,0,0,1-1.343,0Z" transform="translate(-6.804 -6.804)" fill="#11357a" fill-rule="evenodd"/>
  <path id="Caminho_25303" data-name="Caminho 25303" d="M10.742,20.141a9.4,9.4,0,1,0-9.4-9.4A9.4,9.4,0,0,0,10.742,20.141Zm0,1.343A10.742,10.742,0,1,0,0,10.742,10.742,10.742,0,0,0,10.742,21.484Z" fill="#11357a" fill-rule="evenodd"/>
</svg>
